<svg width="344.506" height="79.59" viewBox="0 0 344.506 79.59" xmlns="http://www.w3.org/2000/svg"><g id="svgGroup" stroke-linecap="round" fill-rule="nonzero" font-size="9pt" stroke="#000000" stroke-width="0" fill="#000000" style="stroke:#000000;stroke-width:0;fill:#000000"><path d="M 237.103 68.6 C 237.103 75.4 234.503 79 228.303 79 C 222.753 79 219.003 75.75 219.003 69.85 L 219.003 28.25 C 219.003 19.5 225.153 15.65 231.803 15.65 L 232.403 15.65 C 238.903 15.65 244.153 21.05 245.903 27.45 L 251.153 46.55 L 256.503 27.45 C 258.353 20.8 263.503 15.65 270.003 15.65 L 270.553 15.65 C 277.153 15.65 283.303 19.5 283.303 28.25 L 283.303 69.85 C 283.303 75.75 280.003 79 274.453 79 C 268.253 79 265.053 75.4 265.053 68.6 L 265.053 45.35 L 259.503 62.5 C 257.453 68.8 255.753 71.85 251.153 71.85 C 246.603 71.85 244.953 68.8 242.853 62.5 L 237.103 45.1 L 237.103 68.6 Z M 316.803 79.55 C 307.303 79.55 299.803 77.4 295.053 73.9 C 291.503 71.3 289.603 68 289.603 64.2 C 289.603 60.85 291.803 56.85 297.153 56.85 C 301.603 56.85 304.453 59.05 307.053 61.45 C 309.653 63.85 312.403 66.2 317.203 66.2 C 322.003 66.2 325.203 64.25 325.203 61.05 C 325.203 57.6 321.553 56.6 313.553 54.9 C 297.253 51.4 290.903 43.7 290.903 33.95 C 290.903 23 302.103 16 317.853 16 C 324.853 16 332.203 17.65 337.003 20.9 C 340.203 23.1 342.353 26.05 342.353 29.85 C 342.353 34.35 339.353 37.1 334.903 37.1 C 330.403 37.1 327.353 34.25 325.453 32.45 C 323.703 30.75 321.003 29.35 316.903 29.35 C 312.453 29.35 310.203 31.15 310.203 33.65 C 310.203 36.35 313.803 38.4 322.003 40.3 C 334.653 43.2 344.503 48.15 344.503 59.75 C 344.503 71.75 333.503 79.55 316.803 79.55 Z M 48.253 44.4 C 55.053 44.4 57.753 47.7 57.753 53.85 C 57.753 70.3 45.753 79.55 29.953 79.55 C 13.953 79.55 0.003 70.9 0.003 47.75 C 0.003 24.7 15.253 16 31.253 16 C 38.353 16 44.903 17.6 49.903 21.75 C 52.953 24.25 54.353 27.1 54.353 29.75 C 54.353 34.1 50.353 37.3 46.253 37.3 C 43.403 37.3 40.653 35.9 38.853 34 C 37.153 32.2 34.453 29.55 31.353 29.55 C 25.153 29.55 19.053 34.2 19.053 47.75 C 19.053 62.2 24.653 66 31.153 66 C 36.553 66 38.953 61.7 39.103 57.05 L 36.003 57.05 C 31.153 57.05 27.903 55.2 27.903 50.7 C 27.903 46.2 30.953 44.4 35.803 44.4 L 48.253 44.4 Z M 189.553 79.55 C 176.003 79.55 158.703 73.3 158.703 47.8 C 158.703 22.25 176.003 16 189.553 16 C 200.953 16 212.703 22.3 212.703 32.05 C 212.703 36.85 209.003 40.1 204.553 40.1 C 199.203 40.1 197.753 37.25 196.453 34.5 C 195.203 31.85 193.953 29.35 189.553 29.35 C 183.553 29.35 177.953 33.9 177.953 47.8 C 177.953 61.7 183.553 66.2 189.553 66.2 C 193.953 66.2 195.203 63.75 196.453 61.05 C 197.753 58.3 199.203 55.45 204.553 55.45 C 209.003 55.45 212.703 58.75 212.703 63.5 C 212.703 73.3 200.803 79.55 189.553 79.55 Z M 112.703 44.2 L 115.303 44.2 L 115.303 62.9 C 115.303 76.1 124.503 79.45 135.003 79.45 C 144.703 79.45 154.403 74 154.403 63.65 C 154.403 58.15 151.553 56.35 147.853 56.35 C 143.803 56.35 142.053 58.7 141.053 61.35 C 140.353 63.2 139.103 66.3 137.403 66.3 C 135.853 66.3 134.303 63.65 134.303 58.6 L 134.303 44.2 L 141.603 44.2 C 147.903 44.2 151.103 41.9 151.103 37.55 C 151.103 33.2 147.903 30.9 141.603 30.9 L 134.303 30.9 L 134.303 23.6 C 134.303 16.8 131.003 13.15 124.803 13.15 C 118.603 13.15 115.303 16.8 115.303 23.6 L 115.303 30.9 L 112.703 30.9 C 106.903 30.9 103.703 33.2 103.703 37.55 C 103.703 41.9 106.903 44.2 112.703 44.2 Z M 71.053 78.5 C 65.753 78.5 62.553 76.15 62.553 71.85 C 62.553 67.5 65.753 65.15 71.053 65.15 L 73.953 65.15 L 73.953 44.2 L 72.753 44.2 C 66.953 44.2 63.303 41.9 63.303 37.55 C 63.303 33.2 66.953 30.9 72.753 30.9 L 82.303 30.9 C 89.103 30.9 92.753 34.55 92.753 41.35 L 92.753 65.15 L 95.853 65.15 C 101.203 65.15 104.403 67.5 104.403 71.85 C 104.403 76.15 101.203 78.5 95.853 78.5 L 71.053 78.5 Z M 70.753 12 C 70.753 5.3 76.103 0 82.803 0 C 89.553 0 94.853 5.3 94.853 12 C 94.853 18.75 89.553 24.05 82.803 24.05 C 76.103 24.05 70.753 18.75 70.753 12 Z" vector-effect="non-scaling-stroke"/></g></svg>